<svg width="14" height="14" viewBox="0 0 14 14" fill="none" xmlns="http://www.w3.org/2000/svg">
<path d="M2.91667 11.0833H3.73333L8.76458 6.05208L7.94792 5.23542L2.91667 10.2667V11.0833ZM11.2583 5.20625L8.77917 2.75625L9.59583 1.93958C9.81944 1.71597 10.0942 1.60417 10.4201 1.60417C10.746 1.60417 11.0205 1.71597 11.2437 1.93958L12.0604 2.75625C12.284 2.97986 12.4007 3.24975 12.4104 3.56592C12.4201 3.88208 12.3132 4.15178 12.0896 4.375L11.2583 5.20625ZM10.4125 6.06667L4.22917 12.25H1.75V9.77083L7.93333 3.5875L10.4125 6.06667ZM8.35625 5.64375L7.94792 5.23542L8.76458 6.05208L8.35625 5.64375Z" fill="#3C377E"/>
</svg>
